HIERARCHY
ROOT Hips
{
	OFFSET 0.00000 0.00000 0.00000
	CHANNELS 6 Xposition Yposition Zposition Zrotation Yrotation Xrotation 
	JOINT LHipJoint
	{
		OFFSET 0 0 0
		CHANNELS 3 Zrotation Yrotation Xrotation
		JOINT LeftUpLeg
		{
			OFFSET 1.75344 -1.53157 0.77399
			CHANNELS 3 Zrotation Yrotation Xrotation
			JOINT LeftLeg
			{
				OFFSET 2.25415 -6.19323 0.00000
				CHANNELS 3 Zrotation Yrotation Xrotation
				JOINT LeftFoot
				{
					OFFSET 2.30342 -6.32861 0.00000
					CHANNELS 3 Zrotation Yrotation Xrotation
					JOINT LeftToeBase
					{
						OFFSET 0.10958 -0.30108 1.49206
						CHANNELS 3 Zrotation Yrotation Xrotation
						End Site
						{
							OFFSET 0.00000 -0.00000 0.77783
						}
					}
				}
			}
		}
	}
	JOINT RHipJoint
	{
		OFFSET 0 0 0
		CHANNELS 3 Zrotation Yrotation Xrotation
		JOINT RightUpLeg
		{
			OFFSET -1.81912 -1.53156 0.77399
			CHANNELS 3 Zrotation Yrotation Xrotation
			JOINT RightLeg
			{
				OFFSET -2.22882 -6.12365 0.00000
				CHANNELS 3 Zrotation Yrotation Xrotation
				JOINT RightFoot
				{
					OFFSET -2.21943 -6.09785 0.00000
					CHANNELS 3 Zrotation Yrotation Xrotation
					JOINT RightToeBase
					{
						OFFSET -0.18931 -0.52012 1.59379
						CHANNELS 3 Zrotation Yrotation Xrotation
						End Site
						{
							OFFSET -0.00000 -0.00000 0.84686
						}
					}
				}
			}
		}
	}
	JOINT LowerBack
	{
		OFFSET 0 0 0
		CHANNELS 3 Zrotation Yrotation Xrotation
		JOINT Spine
		{
			OFFSET -0.00200 1.66634 -0.14248
			CHANNELS 3 Zrotation Yrotation Xrotation
			JOINT Spine1
			{
				OFFSET -0.00875 1.64542 0.09514
				CHANNELS 3 Zrotation Yrotation Xrotation
				JOINT Neck
				{
					OFFSET 0 0 0
					CHANNELS 3 Zrotation Yrotation Xrotation
					JOINT Neck1
					{
						OFFSET 0.02257 1.59605 0.00839
						CHANNELS 3 Zrotation Yrotation Xrotation
						JOINT Head
						{
							OFFSET -0.10214 1.57530 -0.23335
							CHANNELS 3 Zrotation Yrotation Xrotation
							End Site
							{
								OFFSET -0.03588 1.60717 -0.08062
							}
						}
					}
				}
				JOINT LeftShoulder
				{
					OFFSET 0 0 0
					CHANNELS 3 Zrotation Yrotation Xrotation
					JOINT LeftArm
					{
						OFFSET 2.54983 1.10186 0.40078
						CHANNELS 3 Zrotation Yrotation Xrotation
						JOINT LeftForeArm
						{
							OFFSET 4.28840 -0.00000 0.00000
							CHANNELS 3 Zrotation Yrotation Xrotation
							JOINT LeftHand
							{
								OFFSET 3.06552 -0.00000 -0.00000
								CHANNELS 3 Zrotation Yrotation Xrotation
								JOINT LeftFingerBase
								{
									OFFSET 0 0 0
									CHANNELS 3 Zrotation Yrotation Xrotation
									JOINT LeftHandIndex1
									{
										OFFSET 0.75304 -0.00000 0.00000
										CHANNELS 3 Zrotation Yrotation Xrotation
										End Site
										{
											OFFSET 0.60712 -0.00000 0.00000
										}
									}
								}
								JOINT LThumb
								{
									OFFSET 0 0 0
									CHANNELS 3 Zrotation Yrotation Xrotation
									End Site
									{
										OFFSET 0.61639 -0.00000 0.61639
									}
								}
							}
						}
					}
				}
				JOINT RightShoulder
				{
					OFFSET 0 0 0
					CHANNELS 3 Zrotation Yrotation Xrotation
					JOINT RightArm
					{
						OFFSET -2.60909 1.35448 0.21802
						CHANNELS 3 Zrotation Yrotation Xrotation
						JOINT RightForeArm
						{
							OFFSET -4.52172 -0.00000 -0.00000
							CHANNELS 3 Zrotation Yrotation Xrotation
							JOINT RightHand
							{
								OFFSET -2.89140 -0.00000 0.00000
								CHANNELS 3 Zrotation Yrotation Xrotation
								JOINT RightFingerBase
								{
									OFFSET 0 0 0
									CHANNELS 3 Zrotation Yrotation Xrotation
									JOINT RightHandIndex1
									{
										OFFSET -0.68054 -0.00000 0.00000
										CHANNELS 3 Zrotation Yrotation Xrotation
										End Site
										{
											OFFSET -0.54867 -0.00000 0.00000
										}
									}
								}
								JOINT RThumb
								{
									OFFSET 0 0 0
									CHANNELS 3 Zrotation Yrotation Xrotation
									End Site
									{
										OFFSET -0.55705 -0.00000 0.55705
									}
								}
							}
						}
					}
				}
			}
		}
	}
}
MOTION
Frames: 12
Frame Time: 0.0645161
0.00 0.00 0.00 0 0 0 0 0 0 -21 0 0 0 0 0 0 0 0 0 0 0 0 0 0 21 0 0 0 0 0 0 0 0 0 0 0 0 0 0 0 0 0 0 0 0 0 0 -16 0 0 21 0 0 11 0 0 0 -8 0 0 0 0 0 0 0 0 0 0 0 0 0 0 0 0 0 0 0 0 8 0 0 0 0 0 0 0 0 0 0 0 0 0 0 0 0 0
0.00 0.00 0.00 -178.3270 -2.2216 190.8750 0.0000 0.0000 0.0000 -16.0047 -16.6849 -24.6691 3.7230 11.7824 34.9664 1.9814 -1.7484 -26.1489 4.8653 -13.2304 -40.2373 0.0000 0.0000 0.0000 23.6174 13.9862 -19.6680 -2.6701 -10.1408 29.4339 -0.5093 -16.0517 -27.1427 -0.0886 1.9199 -5.2844 1.5244 0.5999 18.5947 0.0035 1.0774 -1.3274 -1.1655 0.3775 -11.9337 -8.6274 -3.4154 -5.9911 9.9135 -4.6502 -13.7098 4.4899 -2.7682 -2.6365 -0.0000 -0.0000 0.0000 -25.6950 37.1742 -0.3188 24.2503 -35.4278 -7.8512 -0.0000 0.0000 -0.2403 -5.3103 -36.6389 3.1749 -7.1250 0.0000 -0.0000 -20.5584 -4.7752 23.7238 -0.0000 -0.0000 0.0000 16.0272 -25.2571 56.2217 -41.7319 49.0632 -19.7378 0.0000 0.0000 7.7214 2.7278 -51.3171 -2.1300 7.1250 -0.0000 -0.0000 69.7618 -69.8340 -48.5683
0.00 0.00 0.00 -178.1620 -4.3175 198.0870 0.0000 0.0000 0.0000 -11.4749 -18.3630 -44.1158 7.8202 15.9854 51.9123 2.8467 -6.0337 -30.6949 4.8194 -13.1775 -40.0365 0.0000 0.0000 0.0000 21.2984 17.2208 -38.3415 -6.6466 -15.0269 47.5247 -1.5660 -14.0773 -32.3381 -0.0004 0.1235 -0.3392 2.7340 0.9739 24.3934 0.3628 1.9962 -1.1584 -1.8653 0.6293 -15.0308 -9.3925 -4.5003 -7.3868 10.7318 -6.2194 -16.3394 4.9027 -3.7176 -3.0053 -0.0000 0.0000 0.0000 -20.7433 48.2467 -15.3257 23.3930 -34.5158 -7.3598 -0.0000 0.0000 -4.0251 11.1879 -31.8364 -5.9562 -7.1250 0.0000 -0.0000 -11.5750 -1.7731 12.1758 -0.0000 0.0000 0.0000 4.9846 -40.2803 54.0246 -31.7119 42.3163 -12.5465 0.0000 0.0000 13.0139 10.3619 -48.0333 -7.7421 7.1250 -0.0000 -0.0000 67.7581 -65.9862 -41.8891
0.00 0.00 0.00 -178.0610 -5.1409 206.3880 0.0000 0.0000 0.0000 -6.5472 -20.3633 -62.7342 12.5829 18.6263 67.8249 3.4259 -7.1060 -33.7101 4.0660 -12.2478 -36.6142 0.0000 0.0000 0.0000 16.9709 22.4958 -56.1712 -11.4821 -18.1630 64.3374 -2.5279 -14.7799 -38.1298 -0.0318 -1.1517 3.1664 3.7574 1.4425 26.5007 0.2392 3.0539 -2.2456 -2.9850 0.9533 -16.6694 -8.3315 -3.9433 -7.4458 9.8942 -6.2098 -21.6303 4.7104 -4.1135 -4.7034 -0.0000 0.0000 0.0000 -49.2471 50.2377 -40.5275 20.7704 -31.5593 -5.9293 -0.0000 0.0000 -1.6847 28.3381 -30.2895 -15.2168 -7.1250 0.0000 -0.0000 -1.6202 -3.5779 1.7188 -0.0000 0.0000 0.0000 29.6608 -49.9885 33.6028 -21.9208 32.8874 -6.5428 0.0000 0.0000 22.0173 -1.3134 -50.6693 1.0160 7.1250 -0.0000 -0.0000 65.4730 -70.9783 -46.1476
0.00 0.00 0.00 -178.6800 -3.7267 213.1700 0.0000 0.0000 0.0000 -5.1982 -18.8175 -77.0768 17.1200 19.8000 81.5525 4.3205 -10.6698 -37.8365 2.5285 -9.8895 -28.6197 0.0000 0.0000 0.0000 13.0720 22.3304 -71.9268 -16.6456 -19.7281 80.1495 -3.6994 -11.5077 -41.5291 -0.0052 0.4676 -1.2848 1.3288 1.9384 27.8469 -0.1425 2.9319 -2.9347 -2.0993 1.0671 -18.3156 -7.4759 -2.8816 -6.7822 9.9428 -5.7789 -27.6813 4.9807 -4.5209 -6.8473 -0.0000 -0.0000 0.0000 -79.3542 32.8285 -40.3027 17.2768 -27.2212 -4.2132 -0.0000 -0.0000 8.1165 18.4903 -33.2905 -10.4009 -7.1250 0.0000 -0.0000 -7.6407 -4.4439 8.2813 -0.0000 -0.0000 0.0000 63.6547 -33.8284 7.6926 -16.7494 26.5262 -3.9748 0.0000 0.0000 29.9224 -6.6378 -55.2259 5.4603 7.1250 -0.0000 -0.0000 76.8829 -74.2421 -60.4718
0.00 0.00 0.00 -179.5550 -4.1537 210.3960 0.0000 0.0000 0.0000 -6.4903 -18.7373 -75.2676 19.2395 19.9861 87.7760 4.5435 -11.9048 -38.8203 2.2656 -9.3987 -27.0506 0.0000 0.0000 0.0000 14.1052 21.3425 -71.6408 -19.6647 -19.9973 89.0196 -3.6128 -12.5977 -41.7738 -0.0002 0.0862 -0.2368 0.7848 1.0434 29.2964 -0.2011 1.4627 -2.1242 -1.2557 0.4658 -18.1036 -7.2632 -2.8349 -6.9241 9.4686 -5.7508 -26.8901 4.7330 -4.4561 -6.5907 0.0000 0.0000 0.0000 -81.1741 -21.0830 5.6333 12.8494 -21.0662 -2.3989 -0.0000 -0.0000 21.1019 12.9221 -41.4270 -8.6322 -7.1250 0.0000 -0.0000 -11.6938 -11.4109 14.0408 0.0000 0.0000 0.0000 79.3092 18.6373 17.2548 -14.0416 22.7942 -2.8442 0.0000 0.0000 36.7728 -7.9488 -60.3462 6.9186 7.1250 -0.0000 -0.0000 95.4928 -74.6849 -79.8806
0.00 0.00 0.00 -179.1980 -4.4517 206.0080 0.0000 0.0000 0.0000 -8.1010 -18.0927 -67.3152 18.4547 19.9426 85.4777 3.9199 -9.8019 -35.9769 2.8660 -10.4749 -30.5287 0.0000 0.0000 0.0000 16.3199 21.1463 -62.8932 -18.6570 -19.9567 86.0705 -2.9872 -12.9537 -39.1037 -0.0397 1.2862 -3.5367 0.7089 1.2147 26.1341 0.5147 1.7672 -1.3680 -0.4819 0.6814 -16.3707 -7.7483 -3.0903 -7.5332 6.6659 -6.0441 -23.5942 3.7011 -4.0838 -5.5168 0.0000 -0.0000 0.0000 -80.7845 -79.2191 30.5581 15.9702 -25.4803 -3.6332 -0.0000 -0.0000 6.5215 18.7463 -46.2811 -13.7817 -7.1250 0.0000 -0.0000 -9.7744 -17.2675 12.3833 0.0000 -0.0000 0.0000 67.0370 69.4628 35.3060 -22.8930 33.9716 -7.0784 0.0000 0.0000 13.9639 -6.2296 -65.5269 5.6737 7.1250 -0.0000 -0.0000 96.5150 73.7720 113.5822
0.00 0.00 0.00 -179.1890 -4.4447 205.6170 0.0000 0.0000 0.0000 -8.4921 -17.8612 -66.0686 18.2243 19.9242 84.8019 3.7912 -10.2283 -35.3302 2.3906 -9.6361 -27.8063 0.0000 0.0000 0.0000 16.7941 20.8023 -61.5975 -18.3436 -19.9341 85.1519 -2.9676 -12.9500 -39.0073 -0.0260 1.0414 -2.8627 0.6756 1.3332 25.3974 0.6415 1.9213 -1.2220 -0.3573 0.7665 -15.7715 -8.1360 -3.1865 -7.6909 6.5606 -6.1575 -23.4021 3.7187 -4.0922 -5.4194 -0.0000 0.0000 0.0000 -77.7448 -84.4126 29.1797 16.0693 -25.6145 -3.6759 -0.0000 -0.0000 5.8252 18.8103 -46.6974 -13.9224 -7.1250 0.0000 -0.0000 -9.8371 -17.6818 12.5107 -0.0000 0.0000 0.0000 57.8805 73.2756 28.8487 -24.2572 35.4350 -7.8552 0.0000 0.0000 11.2558 -6.5079 -67.2227 6.0043 7.1250 -0.0000 -0.0000 102.1325 73.4600 119.4842
0.00 0.00 0.00 -179.1100 -4.3126 205.2820 0.0000 0.0000 0.0000 -8.8609 -17.4555 -64.7718 17.9235 19.8963 83.9187 3.7265 -10.2674 -35.0102 2.4802 -9.8018 -28.3373 0.0000 0.0000 0.0000 17.3760 20.5178 -60.1689 -17.9378 -19.8977 83.9607 -2.8849 -13.1142 -38.7152 -0.0200 0.9137 -2.5114 0.6971 1.3904 25.1348 0.6474 2.0291 -1.4850 -0.4035 0.8205 -15.9387 -8.3225 -3.3000 -7.8507 6.4919 -6.2165 -22.8095 3.6935 -4.0630 -5.1989 -0.0000 -0.0000 0.0000 -45.7734 -88.3194 -0.6806 16.3454 -25.9868 -3.7961 -0.0000 -0.0000 4.5450 20.8021 -47.7908 -15.7164 -7.1250 0.0000 -0.0000 -9.1913 -19.1897 11.8222 -0.0000 -0.0000 0.0000 47.1051 75.8899 20.4185 -25.8932 37.1031 -8.8232 0.0000 0.0000 8.7681 -9.2941 -61.8963 8.2142 7.1250 -0.0000 -0.0000 86.2679 75.0121 101.6295
0.00 0.00 0.00 -179.0410 -3.8164 203.5280 0.0000 0.0000 0.0000 -10.5682 -15.9328 -59.2420 16.6909 19.7354 80.2836 3.4576 -10.5562 -33.6543 2.3486 -9.5573 -27.5546 0.0000 0.0000 0.0000 19.2945 19.0413 -54.2115 -16.3433 -19.6763 79.2529 -2.6206 -13.4510 -37.6390 -0.0208 0.9301 -2.5566 0.7587 1.5459 24.3276 0.4664 2.2674 -1.9626 -0.7304 0.9267 -16.0372 -8.6905 -3.5309 -6.3194 6.6661 -6.4194 -22.6659 3.8461 -4.0594 -5.3595 -0.0000 -0.0000 0.0000 83.6032 -77.8056 -124.1442 16.5243 -26.2263 -3.8747 -0.0000 -0.0000 0.7208 25.9718 -51.2403 -20.7992 -7.1250 0.0000 -0.0000 -7.9299 -23.7825 10.5266 -0.0000 -0.0000 0.0000 -5.5117 77.8541 -26.5067 -29.8120 40.7317 -11.2867 0.0000 0.0000 0.4838 -20.7008 -61.5869 18.3850 7.1250 -0.0000 -0.0000 96.4953 78.4859 108.3018
0.00 0.00 0.00 -178.9960 -3.1281 200.3730 0.0000 0.0000 0.0000 -13.4970 -13.0901 -49.3479 14.2163 19.1783 72.8641 2.6511 -9.5238 -29.3308 3.3710 -11.2726 -33.2050 0.0000 0.0000 0.0000 21.8033 15.2614 -43.7407 -13.2751 -18.8792 69.9778 -2.0116 -13.1706 -34.2044 -0.0844 1.8744 -5.1586 0.9628 1.8008 23.5264 0.2139 2.6622 -2.4478 -1.2743 1.0812 -16.1281 -8.8346 -3.3906 -5.3112 6.5492 -6.1743 -22.4586 3.8484 -3.8462 -5.4731 0.0000 0.0000 0.0000 86.9471 -65.5753 -124.8999 18.6479 -28.9789 -4.8591 -0.0000 0.0000 -2.5733 27.6584 -54.1807 -23.0237 -7.1250 0.0000 -0.0000 -8.2568 -26.9701 11.1803 0.0000 0.0000 0.0000 -42.1018 67.9226 -59.0010 -34.9303 44.7623 -14.7642 0.0000 -0.0000 -4.4342 -23.4675 -59.3693 20.4838 7.1250 -0.0000 -0.0000 90.3918 79.9135 100.6442
0.00 0.00 0.00 -179.3460 -2.9243 193.8530 0.0000 0.0000 0.0000 -17.2871 -7.2791 -30.8717 9.3357 17.0189 57.2439 0.7078 -9.9776 -15.5418 2.1401 -9.1519 -26.2718 0.0000 0.0000 0.0000 24.5006 5.2858 -25.4407 -7.7667 -15.9449 51.7178 -0.4854 -11.7999 -22.2202 -0.0188 0.8855 -2.4338 0.3091 1.3337 21.8338 -0.0363 1.7812 -1.7869 -0.8100 0.7510 -14.3658 -7.1151 -3.0734 -11.5460 5.3536 -5.3386 -16.9193 3.0451 -3.3765 -3.2843 -0.0000 -0.0000 0.0000 88.4450 -49.9802 -130.9287 19.9089 -30.5325 -5.4850 -0.0000 0.0000 -0.5003 19.5913 -56.2316 -16.4818 -7.1250 0.0000 -0.0000 -12.0455 -26.8289 16.4270 -0.0000 -0.0000 0.0000 -57.1952 52.6476 -76.8859 -39.0234 47.4805 -17.7160 0.0000 -0.0000 -2.6984 -17.7216 -49.8238 13.7210 7.1250 -0.0000 -0.0000 51.3326 -76.7074 -40.0568
